<svg xmlns="http://www.w3.org/2000/svg" width="24" height="24" viewBox="0 0 24 24" fill="#caa554">
  <rect x="11.5" y="1" width="1" height="7.5"/>
  <rect x="11.5" y="15.5" width="1" height="7.5"/>
  <rect x="1" y="11.5" width="7.5" height="1"/>
  <rect x="15.5" y="11.5" width="7.5" height="1"/>
  <rect x="11.75" y="9.5" width="0.5" height="2"/>
  <rect x="11.75" y="12.5" width="0.5" height="2"/>
  <rect x="9.5" y="11.75" width="2" height="0.5"/>
  <rect x="12.5" y="11.75" width="2" height="0.5"/>
  <rect x="11.25" y="0.75" width="1.5" height="1.5" transform="rotate(45 12 1.5)"/>
  <rect x="11.25" y="21.75" width="1.5" height="1.5" transform="rotate(45 12 22.5)"/>
  <rect x="0.75" y="11.25" width="1.5" height="1.5" transform="rotate(45 1.5 12)"/>
  <rect x="21.75" y="11.25" width="1.5" height="1.5" transform="rotate(45 22.5 12)"/>
</svg>
